<svg xmlns="http://www.w3.org/2000/svg" width="28" height="28" fill="none"><path fill="#1C1C1E" d="M3.251 13.215c0 .457.352.852.914.852.272 0 .519-.149.738-.325l1.002-.844v8.174c0 1.301.782 2.075 2.127 2.075h11.892c1.336 0 2.127-.774 2.127-2.075v-8.217l1.055.887c.21.176.456.325.729.325.518 0 .914-.325.914-.835a.9.9 0 0 0-.343-.73l-2.355-1.985V6.772c0-.395-.255-.641-.65-.641h-1.213c-.387 0-.65.246-.65.641v1.635l-4.281-3.594c-.765-.642-1.732-.642-2.496 0l-9.158 7.69a.92.92 0 0 0-.352.712m13.28 2.426c0-.414-.263-.677-.676-.677h-3.692c-.413 0-.686.263-.686.677v5.757H8.499c-.545 0-.844-.308-.844-.862v-9.105l5.968-5.01c.246-.211.527-.211.774 0l5.897 4.957v9.158c0 .554-.299.861-.844.861h-2.918z"/></svg>
